# xmcd CD database generated by RipIT
#
# Track frame offsets:
# 150
# 20473
# 33988
#
# Disc length: 621 seconds
#
# Revision: 0
# Processed by: cddbd v1.5.2PL0 Copyright (c) Steve Scherf et al.
# Submitted via: RipIT 3.9.0 www.suwald.com/ripit/ripit.html on 2011-06-05 at 20:04
#
DISCID=19026b03
DTITLE=Apollo Mudd - Lightmysadnesslikeacigarette
DYEAR=2010
DGENRE=rock
TTITLE0=Ten Million Best Friends
TTITLE1=Prodigal
TTITLE2=Fish
EXTD=
EXTT0=
EXTT1=
EXTT2=
PLAYORDER=
